<?xml version="1.0" encoding="utf-8"?>
<!-- Generator: Adobe Illustrator 21.0.0, SVG Export Plug-In . SVG Version: 6.00 Build 0)  -->
<svg version="1.1" id="Layer_1" xmlns="http://www.w3.org/2000/svg" xmlns:xlink="http://www.w3.org/1999/xlink" x="0px" y="0px"
	 viewBox="0 0 60 60" style="enable-background:new 0 0 60 60;" xml:space="preserve">
<style type="text/css">
	.st0{fill:#FEC214;}
</style>
<title>026-Checkout Till</title>
<desc>Created with Sketch.</desc>
<g>
	<g>
		<path class="st0" d="M28.3,34.6c4.8,0,8.7-4.7,8.7-10.5c0-5.8-3.9-10.5-8.7-10.5c-2.4,0-4.6,1.1-6.2,3.2c-1.6,2-2.5,4.6-2.4,7.4
			C19.6,29.9,23.5,34.6,28.3,34.6z M28.3,15.9c3.5,0,6.3,3.7,6.3,8.2c0,4.5-2.8,8.2-6.3,8.2c-3.5,0-6.3-3.7-6.3-8.2
			C21.9,19.6,24.8,15.9,28.3,15.9z M35.5,33.5c-0.6,0-1.2,0.5-1.2,1.2c0,0.6,0.5,1.2,1.2,1.2c3.9,0,7.2,3.2,7.2,7.2
			c0,0.5-0.4,0.9-0.9,0.9h-27c-0.5,0-0.9-0.4-0.9-0.9c0-3.9,3.2-7.2,7.2-7.2c0.6,0,1.2-0.5,1.2-1.2c0-0.6-0.5-1.2-1.2-1.2
			c-5.2,0-9.5,4.2-9.5,9.5c0,1.8,1.4,3.2,3.2,3.2h27c1.8,0,3.2-1.4,3.2-3.2C45,37.7,40.8,33.5,35.5,33.5z M29.1,12.3
			c0.8-0.5,1.7-0.7,2.6-0.7c3.5,0,6.3,3.7,6.3,8.2c0,0.8-0.1,1.6-0.3,2.4c-0.1,0.6,0.2,1.2,0.9,1.4c0.1,0,0.2,0,0.3,0
			c0.5,0,1-0.4,1.1-0.9c0.2-0.9,0.3-1.9,0.3-2.9c0-5.8-3.9-10.5-8.7-10.5c-1.3,0-2.6,0.4-3.8,1.1c-0.5,0.3-0.7,1-0.4,1.6
			C27.9,12.4,28.6,12.6,29.1,12.3z M39.2,28.8c-0.6,0-1.2,0.5-1.2,1.2c0,0.6,0.5,1.2,1.2,1.2c3.9,0,6.9,3.3,6.9,7.2
			c0,0.1,0,0.3-0.1,0.4c-0.3,0.6,0,1.3,0.6,1.5c0.2,0.1,0.3,0.1,0.5,0.1c0.4,0,0.9-0.3,1.1-0.7c0.2-0.4,0.3-0.9,0.3-1.3
			C48.5,33.2,44.4,28.8,39.2,28.8z"/>
	</g>
	<g>
		<path class="st0" d="M30,60C13.5,60,0,46.5,0,30C0,13.5,13.5,0,30,0s30,13.5,30,30C60,46.5,46.5,60,30,60z M30,2.3
			C14.7,2.3,2.3,14.7,2.3,30c0,15.3,12.4,27.7,27.7,27.7c15.3,0,27.7-12.4,27.7-27.7C57.7,14.7,45.3,2.3,30,2.3z"/>
	</g>
</g>
</svg>
