<?xml version="1.0" encoding="utf-8"?>
<!-- Generator: Adobe Illustrator 21.0.0, SVG Export Plug-In . SVG Version: 6.00 Build 0)  -->
<svg version="1.1" id="Layer_1" xmlns="http://www.w3.org/2000/svg" xmlns:xlink="http://www.w3.org/1999/xlink" x="0px" y="0px"
	 viewBox="0 0 60 60" style="enable-background:new 0 0 60 60;" xml:space="preserve">
<style type="text/css">
	.st0{fill:#FEC214;}
</style>
<title>026-Checkout Till</title>
<desc>Created with Sketch.</desc>
<g>
	<path class="st0" d="M38.3,10.9v31.2H0V60h38.3h2.6H60V10.9H38.3z M57.5,13.4v12.8H40.9V13.4H57.5z M29.4,44.7v12.7H11.5V44.7H29.4
		z M2.6,44.7h6.3v12.7H2.6V44.7z M38.3,57.4H32V44.7h6.3V57.4z M40.9,57.4V42.1V28.8h16.6v28.6H40.9z"/>
	<rect x="43.4" y="31.3" class="st0" width="2.6" height="5.1"/>
	<rect x="43.4" y="18.5" class="st0" width="2.6" height="5.1"/>
	<path class="st0" d="M28.1,31.3h2.5v-2.6h-2.5V0H12.8v28.7h-2.6v2.6h2.6H28.1z M15.3,2.6h10.2v26.1H15.3V2.6z"/>
	<rect x="17.9" y="38.3" class="st0" width="5.1" height="2.6"/>
</g>
</svg>
