<?xml version="1.0" encoding="utf-8"?>
<!-- Generator: Adobe Illustrator 21.0.0, SVG Export Plug-In . SVG Version: 6.00 Build 0)  -->
<svg version="1.1" id="Layer_1" xmlns="http://www.w3.org/2000/svg" xmlns:xlink="http://www.w3.org/1999/xlink" x="0px" y="0px"
	 viewBox="0 0 60 60" style="enable-background:new 0 0 60 60;" xml:space="preserve">
<style type="text/css">
	.st0{fill:#FEC214;}
</style>
<title>026-Checkout Till</title>
<desc>Created with Sketch.</desc>
<path class="st0" d="M28.7,47.2v11.7c0,0.6-0.5,1.1-1.1,1.1H16c-0.6,0-1.1-0.5-1.1-1.1V47.2c0-0.6,0.5-1.1,1.1-1.1h4.5v4.2h2.7v-4.2
	h4.4C28.2,46.2,28.7,46.6,28.7,47.2z M44.1,46.2h-4.4v4.2H37v-4.2h-4.5c-0.6,0-1.1,0.5-1.1,1.1v11.7c0,0.6,0.5,1.1,1.1,1.1h11.7
	c0.6,0,1.1-0.5,1.1-1.1V47.2C45.2,46.6,44.7,46.2,44.1,46.2z M24.2,29.7c-0.6,0-1.1,0.5-1.1,1.1v11.7c0,0.6,0.5,1.1,1.1,1.1h11.7
	c0.6,0,1.1-0.5,1.1-1.1V30.7c0-0.6-0.5-1.1-1.1-1.1h-4.4v4.2h-2.7v-4.2H24.2z M57.7,23.4L32.3,0.8c-1.3-1.1-3.2-1.1-4.5,0L2.3,23.4
	C0.9,24.7,1.8,27,3.7,27h2.7v31.9c0,0.6,0.5,1.1,1.1,1.1h3.7c0.6,0,1.1-0.5,1.1-1.1V27.1h35.7v31.9c0,0.6,0.5,1.1,1.1,1.1h3.7
	c0.6,0,1.1-0.5,1.1-1.1V27.1h2.7C58.2,27.1,59.1,24.7,57.7,23.4z"/>
</svg>
