<?xml version="1.0" encoding="utf-8"?>
<!-- Generator: Adobe Illustrator 21.0.0, SVG Export Plug-In . SVG Version: 6.00 Build 0)  -->
<svg version="1.1" id="Layer_1" xmlns="http://www.w3.org/2000/svg" xmlns:xlink="http://www.w3.org/1999/xlink" x="0px" y="0px"
	 viewBox="0 0 60 60" style="enable-background:new 0 0 60 60;" xml:space="preserve">
<style type="text/css">
	.st0{fill:#FEC214;}
</style>
<title>026-Checkout Till</title>
<desc>Created with Sketch.</desc>
<path class="st0" d="M56.9,43.5H3.1c-1.6,0-2.8,1.2-2.8,2.8v1.9c0,4.1,3.3,7.4,7.4,7.4h44.6c4.1,0,7.4-3.3,7.4-7.4v-1.9
	C59.7,44.7,58.5,43.5,56.9,43.5z M57.9,48.1c0,3.1-2.5,5.6-5.6,5.6H7.7c-3.1,0-5.6-2.5-5.6-5.6v-1.9c0-0.6,0.4-0.9,0.9-0.9h53.9
	c0.6,0,0.9,0.4,0.9,0.9V48.1z M30,4.5C6.5,4.5,0.3,13.2,0.3,18.4v2.8c0,1.6,1.2,2.8,2.8,2.8h53.9c1.6,0,2.8-1.2,2.8-2.8v-2.8
	C59.7,13.2,53.5,4.5,30,4.5z M57.9,21.2c0,0.6-0.4,0.9-0.9,0.9H3.1c-0.6,0-0.9-0.4-0.9-0.9v-2.8C2.1,14.2,8,6.3,30,6.3
	s27.9,7.9,27.9,12.1V21.2z M56.8,38.5c0.2,0.5,0,1-0.4,1.2c-0.2,0.1-4,2-7.9,2c-2,0-3.5-0.5-4.9-1c-1.4-0.4-2.7-0.8-4.4-0.8
	s-3,0.5-4.4,0.8c-1.4,0.6-2.9,1-4.9,1s-3.5-0.5-4.9-1c-1.4-0.4-2.7-0.8-4.4-0.8c-1.9,0-3.4,0.5-5,1c-1.5,0.4-2.9,0.8-4.3,0.8
	c-3,0-7.6-1.9-7.8-2c-0.5-0.2-0.7-0.7-0.6-1.2c0.2-0.5,0.7-0.7,1.2-0.6c0,0,4.6,1.8,7.1,1.8c1.1,0,2.4-0.4,3.7-0.7
	c1.6-0.5,3.4-1.1,5.6-1.1c2,0,3.5,0.5,4.9,1c1.4,0.5,2.6,0.8,4.4,0.8c1.8,0,3-0.5,4.4-0.8c1.5-0.5,3-1,4.9-1s3.5,0.5,4.9,1
	c1.4,0.5,2.6,0.8,4.4,0.8c3.4,0,7-1.8,7.1-1.8C56,37.8,56.6,38,56.8,38.5z M2.1,32.8c0,1.8,1.5,3.3,3.3,3.3h21.7l2.3,1.7
	c0.2,0.1,0.4,0.2,0.6,0.2s0.4-0.1,0.6-0.2l2.3-1.7h22.7c1.8,0,3.3-1.5,3.3-3.3c0-1.8-1.5-3.3-3.3-3.3H41.7l0.7-0.5
	c1.2-0.9,2.7-1.4,4.3-1.4H56c0.6,0,0.9-0.4,0.9-0.9s-0.4-0.9-0.9-0.9h-9.4c-2,0-3.8,0.6-5.3,1.8L30,35.9l-11.2-8.3
	c-1.6-1.1-3.4-1.8-5.3-1.8H4c-0.6,0-0.9,0.4-0.9,0.9s0.4,0.9,0.9,0.9h9.4c1.5,0,3,0.5,4.3,1.4l0.7,0.5H5.4C3.6,29.5,2.1,31,2.1,32.8
	z M39.3,31.4h16.3c0.7,0,1.4,0.7,1.4,1.4c0,0.7-0.7,1.4-1.4,1.4H35.4L39.3,31.4C39.2,31.4,39.3,31.4,39.3,31.4z M24.6,34.2H5.4
	c-0.7,0-1.4-0.7-1.4-1.4c0-0.7,0.7-1.4,1.4-1.4h15.3h0.1L24.6,34.2z"/>
</svg>
