<?xml version="1.0" encoding="utf-8"?>
<!-- Generator: Adobe Illustrator 21.0.2, SVG Export Plug-In . SVG Version: 6.00 Build 0)  -->
<svg version="1.1" id="Layer_1" xmlns="http://www.w3.org/2000/svg" xmlns:xlink="http://www.w3.org/1999/xlink" x="0px" y="0px"
	 viewBox="0 0 500 201" style="enable-background:new 0 0 500 201;" xml:space="preserve">
<style type="text/css">
	.st0{fill:#FFFFFF;}
</style>
<g>
	<g>
		<path class="st0" d="M61.1,130.8c-1.2,2.7-2,4.5-2,4.5L51.5,150c0,0-4.7,8.2-7,11.9c-2.3,3.6-4.6,6.7-6.8,9.3s-4.4,4.5-6.5,5.9
			s-4.1,2-6.1,1.9c-1.4-0.1-2.6-0.8-3.5-2.2c-1-1.4-1.8-2.9-2.6-4.6c-0.8-1.7-1.4-3.3-2-4.9c-0.6-1.6-1.3-2.6-2-3.1
			c-0.4-0.3-0.7-0.5-1.2-0.7c-0.4-0.1-0.9-0.2-1.3-0.2c-1.1-0.1-2.1,0.1-3.1,0.6c-0.9,0.5-1.8,1.1-2.7,1.8c-0.8,0.7-1.6,1.5-2.2,2.3
			s-1.2,1.4-1.6,1.9c-1,1.2-1.8,2.5-2.4,3.8s-0.9,2.7-1,4.2c-0.1,2.1,0.1,4.1,0.7,6.1s1.3,3.9,2.3,5.6c0.9,1.7,2,3.3,3.1,4.5
			c1.1,1.3,2.2,2.2,3.2,2.7c3.3,2.2,6.9,3.5,10.8,3.7c5.1,0.3,10.1-0.8,15-3.2s9.7-5.8,14.3-10.2s9.1-9.6,13.4-15.6
			c4.3-6,12.1-19.3,12.1-19.3l8.2-15.9c0,0,1.4-3,3.1-6.8l-9.9,1.2C75.9,130.8,67.3,131,61.1,130.8z M490.5,62
			c-5.8,0-22.1,1.1-22.1,1.1l-4.2,0.5c-0.2,0.6-0.4,1.1-0.6,1.7c-0.4,1.3-0.8,2.5-1.2,3.6c-0.6,1.9-1.1,3.4-1.5,4.5
			c-0.3,0.8-0.6,1.6-1.1,2.3c-0.1,0.2-0.3,0.4-0.4,0.6c14.2-2.2,24.4-4.4,30.5-6.5c6.2-2.2,9.4-4.1,9.5-5.6c0-0.1,0.1-0.2,0-0.3
			C499.4,62.6,496.4,62,490.5,62z M147.1,105.9c0.3-0.6,0.5-1.2,0.8-1.7c2-4.5,4.1-9.3,5.6-12.8c3.7-8.4,7.3-16.5,10.7-24.3
			s6.6-15.1,9.6-21.9c2.9-6.8,5.3-12.4,7.2-17.1c0.4-1,0.8-2,1-2.8c0.3-0.8,0.4-1.8,0.4-2.9c0-1.5-0.4-2.8-1.1-3.9
			c-0.2-0.4-0.5-0.7-0.9-1c-1.3-1.2-3.2-1.8-5.8-1.8c-2.4,0-5.5,2.6-9.2,7.8s-8,12.3-12.9,21.3c-4.8,9-10.1,19.5-15.9,31.5
			c-3.9,8.1-10.9,22.8-15.1,31.5l-22.3,3c0,0-2.6,0.4-6,1c1.3-3.2,2.5-6.3,3.6-9.3c2-5.4,3.9-10.7,5.5-15.7c1.7-5,3.1-9.6,4.3-13.8
			c1.2-4.2,2.1-7.9,2.9-11.2c0.8-3.2,1.3-5.8,1.5-7.7c0.1-0.7,0.2-1.4,0.2-2s0.1-1.2,0.1-1.8c0.3-4.9-0.3-8.3-1.7-10.3
			c-1.4-1.9-3.5-3-6.4-3.2c-1.9-0.1-3.7,0.3-5.4,1.3c-1.7,0.9-2.9,2.5-3.6,4.8c-0.3,0.8-0.9,2.7-2,5.9c-1,3.1-2.4,7-4,11.8
			s-3.5,10.2-5.7,16.2c-2.2,6-4.5,12.3-7.1,18.9c-2.5,6.6-5.2,13.3-8,20.1c-0.2,0.5-0.4,1.1-0.7,1.6c-1.7,0.4-3.3,0.9-4.8,1.3
			c-4.6,1.3-8.2,2.6-10.7,3.8c-2.5,1.2-3.7,2.3-3.6,3.2c0.1,0.7,0.6,1.3,1.6,1.9c1.1,0.6,2.6,1.1,4.7,1.6c1.4,0.3,4.3,0.4,7.5,0.5
			c5.9,0.1,12.8,0,12.8,0l12.2-1.5l27.2-3.3l-0.8,1.7l-1.2,2.7L96,162.5c-1.2,2.6-1.8,4.8-1.8,6.7c0,2.2,0.8,3.9,2.3,5
			c0.1,0,0.1,0.1,0.2,0.1c1.5,1,3.4,1.6,5.5,1.6c1.5,0,3.2-0.3,5-0.8c1.8-0.6,3.6-1.4,5.3-2.5c1.8-1.1,3.4-2.6,5-4.2
			c1.6-1.7,3-3.7,4.2-5.9c1.5-2.7,3.6-7.1,6.3-13.2c2.7-6.1,9.5-21.3,9.5-21.3l2.1-4.8l0.7-1.7l2.4-5.5
			C142.8,115.7,144.8,111.3,147.1,105.9z M376.3,76.5c0.2-0.2,0.4-0.4,0.6-0.6c0.6-0.6,1.2-1.2,1.8-1.7l0.1-0.1
			c0.8-0.7,1.6-1.4,2.5-2.1s2-1.5,3.2-2.4s2.6-1.9,4.2-3s3.4-2.5,5.6-4c1.5-1.1,2.5-2.2,3-3.2s0.7-2,0.6-2.8c-0.1-0.5-0.3-1-0.5-1.4
			c-0.2-0.3-0.4-0.6-0.7-0.8c-0.7-0.5-1.5-0.8-2.3-0.7c-0.2,0-0.9,0.4-2.2,1.1c-1.3,0.7-2.8,1.7-4.6,2.8c-1.8,1.1-3.6,2.4-5.5,3.8
			c-1.1,0.8-2.1,1.6-3,2.4c-0.7,0.6-1.3,1.2-1.9,1.7l8.1-24.4c0.1-0.4,0.1-0.9,0.1-1.3c0-0.4-0.2-0.7-0.3-1
			c-0.1-0.2-0.2-0.4-0.3-0.5c-0.4-0.5-0.9-0.7-1.6-0.6c-0.4,0-0.8,0.1-1.1,0.2c-0.4,0.1-0.8,0.2-1.2,0.5c-0.4,0.2-0.9,0.6-1.5,1
			c-0.6,0.5-1.3,1.1-2.1,1.9l-18,22.7c-0.4,0.5-0.9,1-1.4,1.4c-0.4,0.3-0.7,0.5-0.9,0.6c-0.1,0-0.2,0.1-0.4,0.1
			c-0.4,0.1-0.6-0.2-0.7-0.7c-0.1-0.6,0.1-1.3,0.4-2.4l6.6-19.9c0.1-0.3,0.1-0.7,0.1-1.1c0-0.3-0.1-0.5-0.2-0.7
			c-0.2-0.4-0.6-0.8-1.1-1.1c-0.8-0.4-1.7-0.5-2.7-0.4s-2,0.5-2.9,1.3c-1,0.7-1.7,1.7-2.2,3.1c-0.6,2.5-1.2,4.7-1.8,6.6
			c-0.5,1.9-1,3.6-1.5,5c-0.2,0.6-0.4,1.1-0.6,1.7c-0.7,0.5-1.3,1-2.1,1.6c-1.8,1.3-3.7,2.7-5.7,4.1s-4,2.8-6.1,4.1
			c-1.8,1.2-3.4,2.2-4.8,3.1c-0.2,0.1-0.5,0.3-0.7,0.4c-0.3,0-0.4,0-0.5-0.1c0-0.1-0.1-0.3-0.1-0.5c0-0.3,0.2-0.9,0.8-1.8
			c0.6-0.9,1.4-1.9,2.3-3.1s1.9-2.5,3-3.9s2.1-2.8,3.1-4.2c0.9-1.4,1.7-2.7,2.4-4c0.7-1.3,1-2.3,1.1-3.2c0-0.5,0-0.9,0-1.3
			c0-0.4-0.1-0.8-0.1-1.2c-0.1-1-0.4-1.9-0.8-2.5c-0.2-0.4-0.5-0.7-0.8-0.9c-0.9-0.6-2.1-0.8-3.5-0.6c-0.9,0.1-1.9,0.4-3.1,0.8
			c-1.1,0.4-2.3,1-3.5,1.6s-2.5,1.4-3.7,2.2c-0.9,0.6-1.7,1.2-2.5,1.8c-0.4,0.3-0.8,0.6-1.2,0.9l-0.1,0.1l0,0c0,0-0.1,0-0.1-0.1
			s0-0.2,0-0.4s0.1-0.4,0.2-0.6c0.1-0.2,0.1-0.4,0.2-0.6c0-0.2,0.1-0.3,0-0.4c0-0.2-0.1-0.4-0.2-0.6c-0.1-0.3-0.3-0.6-0.6-0.8
			c-0.5-0.4-1.1-0.7-1.8-0.9c-0.7-0.2-1.5-0.3-2.4-0.4c-0.9,0-1.7,0-2.6,0.1c-0.8,0.1-1.6,0.3-2.3,0.6c-0.7,0.3-1.3,0.6-1.8,1.1
			c-0.5,0.4-0.9,1-1.1,1.6c-0.3,0.6-0.3,1.3-0.2,2.1c0.1,0.9,0.4,1.5,0.7,2.1c0.3,0.4,0.7,0.8,1.1,1.1c0.1,0.1,0.2,0.2,0.2,0.3
			c-1,3-1.9,5.7-2.7,8c0,0.1,0,0.1-0.1,0.2h-0.1c-0.6,0.2-1.6,0.8-3,1.6c-1.4,0.8-3.2,2-5.6,3.6c-2,1.4-4.6,3.3-7.5,5.6
			c-0.4,0.3-0.9,0.6-1.3,1l-0.8,1l8.7-23.3c0.2-0.5,0.2-0.9,0.2-1.3c0-0.3-0.2-0.6-0.3-0.9c-0.2-0.4-0.6-0.8-1.1-1.1
			c-0.9-0.5-2-0.6-3.4-0.5c-0.6,0.1-1.1,0.2-1.6,0.5s-1,0.5-1.4,0.8c-0.5,0.3-0.9,0.7-1.4,1c-0.7-0.5-1.6-1-2.5-1.4
			c-0.8-0.3-1.8-0.6-2.9-0.8s-2.4-0.2-3.8-0.1c-2.5,0.3-5,1.2-7.5,2.7s-4.7,3.3-6.6,5.7c-1.9,2.3-3.4,5-4.4,8.1
			c-0.5,1.7-0.9,3.4-1,5.2c-1.3,1.3-2.7,2.5-4.2,3.8c-1.6,1.3-3.2,2.6-4.9,3.8c-1.7,1.2-3.4,2.3-5.1,3.2c-0.4,0.3-0.7,0.6-1,0.7
			s-0.5,0.1-0.8,0.2h-0.1c-0.3,0-0.5,0-0.7-0.2s-0.3-0.4-0.3-0.7c-0.1-0.7,0-1.3,0.4-1.9c0.3-0.6,0.6-1.4,1.1-2.4s1-2,1.5-3.2
			s1.1-2.4,1.6-3.7c0.5-1.3,1-2.7,1.4-4c0.4-1.4,0.7-2.7,0.9-4s0.2-2.6,0.1-3.8c-0.1-1.2-0.5-2.1-1-2.8c-0.4-0.5-0.8-0.9-1.3-1.2
			c-1.3-0.7-2.8-0.9-4.5-0.7c-1.5,0.2-3.1,0.7-4.8,1.4s-3.2,1.6-4.8,2.5c-1.5,1-2.9,2-4.1,3.2c-0.5,0.5-1,1-1.4,1.5
			c-0.5,0.6-1,1.2-1.3,1.8c0.2-0.6,0.3-1.1,0.3-1.6s0-1,0-1.4c-0.1-0.6-0.2-1.1-0.5-1.5c-0.2-0.4-0.5-0.7-0.8-0.9
			c-0.7-0.5-1.4-0.7-2.2-0.6c-0.9,0.1-1.9,0.6-2.8,1.4c-0.9,0.8-1.6,2-2.1,3.5c-0.4,1.2-0.9,2.7-1.5,4.4c-0.6,1.7-1.2,3.6-1.9,5.6
			s-1.3,4-2,6c-0.4,1.2-0.8,2.4-1.1,3.5c-0.6,0.6-1.3,1.2-1.9,1.8c-1.5,1.3-3,2.3-4.4,3.1c-1.4,0.8-2.7,1.2-3.7,1.4
			c-0.5,0.1-0.9,0-1.2-0.1c-0.6-0.2-1-0.6-1.1-1.4c-0.2-1.3-0.1-2.7,0.1-4.2c0.3-1.5,0.6-3.1,1.1-4.8c0.5-1.6,1-3.3,1.6-4.9
			s1.1-3.1,1.6-4.5s0.9-2.7,1.2-3.8c0.3-1.1,0.4-1.9,0.4-2.5c-0.1-0.7-0.3-1.2-0.7-1.8c-0.2-0.3-0.4-0.6-0.7-0.8
			c-0.8-0.7-1.8-0.9-2.9-0.8c-1.1,0.1-1.9,0.6-2.6,1.4c-0.6,0.8-1.2,1.8-1.6,3c-0.4,1.2-0.8,2.4-1.1,3.7s-0.7,2.6-1.2,3.8
			c-0.7,1.8-1.5,3.8-2.6,6s-2.3,4.3-3.7,6.2c-1.4,2-3,3.7-4.8,5.1s-3.7,2.3-5.9,2.6c-0.4,0.1-0.8,0-1.1-0.1
			c-0.2-0.1-0.5-0.2-0.6-0.4c-0.4-0.5-0.6-1-0.7-1.6c-0.1-1.4,0-2.9,0.3-4.5s0.7-3.1,1.2-4.6s1.1-3,1.7-4.5c0.6-1.4,1.2-2.8,1.8-4.1
			c0.6-1.3,1.1-2.4,1.5-3.3c0.4-1,0.7-1.7,0.8-2.3c0.1-0.3,0.1-0.6,0-1c0-0.2-0.1-0.5-0.2-0.7c-0.1-0.2-0.2-0.4-0.4-0.6
			c-0.3-0.3-0.7-0.6-1.1-0.8c-0.5-0.2-0.9-0.3-1.4-0.4c-0.5-0.1-1,0-1.4,0c-1,0.1-2,0.5-2.8,1.2s-1.5,1.7-2,3
			c-2.1,5.1-3.6,9.4-4.7,12.9c-1,3.5-1.8,6.3-2.2,8.5s-0.7,3.8-0.7,4.7c0,1,0,1.5,0,1.5c0.2,1.4,0.6,2.6,1.1,3.4
			c0.4,0.6,0.9,1.1,1.4,1.5c0.2,0.2,0.4,0.4,0.7,0.5c0.8,0.5,1.7,0.7,2.8,0.8c1,0.1,2.1,0.1,3.2-0.1c2.4-0.3,4.6-0.9,6.5-1.9
			c1.9-0.9,3.7-2,5.2-3.3s2.8-2.7,3.9-4.2c1.1-1.5,2-2.9,2.7-4.3c-0.2,1.2-0.2,2.2-0.2,3.2c0,0.8,0,1.5,0.1,2.2c0.3,2.1,1,3.6,2,4.3
			c0,0,0.1,0,0.1,0.1c1.1,0.7,2.4,1,3.9,0.8c1.6-0.2,3.3-0.8,5.2-1.8c1.8-1,3.7-2.2,5.5-3.6c0,0.1,0,0.2,0,0.3
			c0.1,0.5,0.2,0.9,0.4,1.2c0.2,0.5,0.5,0.9,0.9,1.3c0.1,0.1,0.3,0.2,0.4,0.3c0.6,0.4,1.4,0.5,2.2,0.4c0.1,0,0.1,0,0.2,0
			c0.1,0,0.1,0,0.2,0c1-0.2,1.8-0.6,2.4-1.4c0.6-0.8,1.2-1.8,1.6-2.9c0.5-1.1,0.9-2.4,1.3-3.7c0.4-1.3,0.8-2.5,1.3-3.7
			c0.8-1.7,1.8-3.7,2.9-5.9c1.1-2.2,2.4-4.3,3.8-6.4c1.4-2,3-3.8,4.7-5.3s3.6-2.4,5.7-2.6c0.6-0.1,1,0,1.3,0.4
			c0.2,0.2,0.3,0.4,0.4,0.7c0.1,0.2,0.1,0.3,0.1,0.5c0.1,0.6,0,1.3-0.4,2.2c-0.3,0.9-0.7,2-1.2,3.2s-1,2.5-1.6,3.9s-1.1,2.7-1.6,4.1
			s-0.9,2.7-1.2,4s-0.4,2.4-0.4,3.5c0,0.3,0,0.5,0,0.7s0,0.4,0.1,0.7c0.2,1.7,0.8,3,1.7,3.9c0.1,0.1,0.3,0.2,0.4,0.3
			c0.6,0.4,1.3,0.7,2.2,0.7c0.4,0,0.9,0,1.4,0c0.4-0.1,0.9-0.2,1.4-0.3c0.2,0,0.3-0.1,0.5-0.1c0.7-0.2,1.4-0.5,2.3-0.9
			c2.4-1,4.5-2.1,6.2-3.2s3.4-2.2,4.9-3.4c1.5-1.2,2.9-2.4,4.4-3.7c0.6-0.5,1.2-1.1,1.8-1.7c0.2,0.5,0.3,1,0.5,1.5
			c0,0.1,0.1,0.2,0.1,0.4c0.6,1.4,1.4,2.6,2.4,3.6c0.2,0.2,0.4,0.4,0.6,0.5c0.8,0.7,1.6,1.3,2.6,1.6c1.2,0.5,2.4,0.6,3.7,0.4
			c0.7-0.1,1.5-0.3,2.5-0.7c0.9-0.4,1.9-0.9,3-1.5c1-0.7,2.1-1.5,3.2-2.4c1.1-1,2.2-2.1,3.3-3.4l-3,5l-1.8,3.1
			c-1.6,0.2-3.1,0.4-4.7,0.6c-0.5,0.2-1,0.3-1.5,0.3c-0.4,0.1-0.8,0-1.2,0c-3.8,0.5-7.5,1-11.1,1.5c-4.6,0.6-9,1.2-13.3,1.8
			c-0.5,0.2-1.1,0.5-1.6,0.7c-0.8,0.4-1.6,0.7-2.3,0.9c-0.7,0.2-1.3,0.4-1.9,0.4c-1.6,0.2-2.8-0.1-3.8-0.8
			c-4.9,0.7-9.6,1.3-14.1,1.9c-1.4,0.2-3,0.4-4.7,0.6l-0.1,0.1c-0.6,0.8-1.5,1.3-2.6,1.4s-2.1-0.1-2.8-0.7c0,0,0,0,0-0.1
			c-2.3,0.3-4.6,0.6-6.8,0.9c-1.9,1-3.6,1.6-5.1,1.8c-1.4,0.2-2.6,0-3.6-0.6c-2.6,0.3-4.2,0.6-4.2,0.6L185,99.5
			c-1.9,0.9-4,1.5-6.3,1.8c-1.1,0.1-2.1,0.2-3.2,0.1c-0.6-0.1-1.1-0.2-1.6-0.3l-23.7,3.2c-0.3,0.6-0.5,1.2-0.8,1.7
			c-2.7,6.2-5.1,11.6-5.1,11.6l-1.6,3.8l24.8-3.1c0,0,55.9-7.8,85.5-12c5.3-0.8,11.7-1.7,18.6-2.6c-0.2,0.6-0.4,1.2-0.6,1.7
			c-0.2,0.8-0.4,1.5-0.6,2.2c-0.4,1.8-0.5,3.4-0.3,4.7c0.2,1.2,0.7,2.3,1.5,3.1c0.1,0.1,0.3,0.2,0.4,0.3c0.8,0.6,1.7,0.8,2.8,0.7
			c0.8-0.1,1.6-0.3,2.2-0.7c0.6-0.3,1.2-0.9,1.7-1.7c0.5-0.8,1-1.8,1.5-3c0.5-1.3,1-2.9,1.6-4.8l0.9-2.3l0.7-1.7l5.7-14.4
			c0.1-0.1,0.1-0.1,0.2-0.2c0.6-0.6,1.2-1.3,1.9-1.9c1.1-1,2.2-2.1,3.4-3c2-1.6,4-3,6-4.3s3.9-2.5,5.8-3.7c0.1-0.1,0.2-0.1,0.3-0.2
			c-0.2,0.7-0.5,1.4-0.7,2.1c-0.2,0.6-0.4,1.2-0.6,1.8c-0.3,0.7-0.4,1.3-0.5,1.9c0,0.6,0,1,0,1.4c0.1,0.9,0.4,1.5,0.9,1.8
			c0.1,0.1,0.3,0.1,0.4,0.2v0.1c0.1,0,0.1,0,0.2,0c0.4,0.1,0.8,0.2,1.2,0.1c0.5-0.1,1-0.2,1.5-0.4c0.2-0.1,0.4-0.2,0.6-0.3
			c0.7-0.4,1.5-0.9,2.1-1.5c0.7-0.6,1.3-1.4,1.8-2.2c0.5-0.8,0.9-1.8,1.2-2.8c0.4-1.1,0.8-2.5,1.3-4.1s1-3.2,1.6-4.9
			c0.5-1.6,1.1-3.2,1.6-4.7c0.5-1.5,1-2.7,1.4-3.7c0.3-0.8,0.9-1.5,1.7-2.3c0.8-0.8,1.7-1.4,2.7-2.1c0.9-0.6,1.9-1.1,2.7-1.5
			c0.9-0.4,1.5-0.6,1.9-0.7c0.2,0,0.4,0,0.5,0.2s0.1,0.3,0.2,0.5c0,0.1,0,0.3,0,0.5c0,0.6-0.1,1.2-0.4,1.9c-0.4,0.9-0.8,1.8-1.4,2.9
			c-0.6,1.1-1.2,2.2-1.9,3.4c-0.7,1.2-1.4,2.5-2,3.8s-1.2,2.7-1.6,4.1s-0.7,2.9-0.7,4.3c0,0.1,0,0.3,0,0.6c0.2,1.7,1,3,2.2,3.9l0,0
			c1.3,0.9,3,1.3,5.3,1c0.9-0.1,2-0.5,3.3-1.1c1.2-0.6,2.5-1.4,3.9-2.3s2.8-1.9,4.3-3s2.9-2.3,4.4-3.4c0.3-0.2,0.6-0.5,0.9-0.7
			c-0.1,0.2-0.1,0.5-0.2,0.7c-0.1,0.5-0.2,1.1-0.3,1.6c-0.3,1.5-0.3,2.9-0.1,4.2c0.1,1.1,0.6,1.9,1.4,2.3c0,0,0,0,0.1,0
			c0.4,0.2,0.8,0.3,1.3,0.4s1,0.1,1.6,0c0.7-0.1,1.4-0.3,2.1-0.5c2.8-0.9,5.6-2.7,8.5-5.6c3.6-3.6,7.5-8.6,11.6-15.1l-1.8,5.2
			l-4.7,13.7c-3.1,0.4-6.1,0.8-9.1,1.2c-1.9,1.1-3.8,1.8-5.6,2.1c-1.1,0.1-2.1,0-2.9-0.4c-0.3-0.1-0.5-0.3-0.7-0.5
			c-5.4,0.7-10.6,1.3-15.6,2c-0.4,0.1-0.9,0.2-1.2,0.3c-0.6,0.1-1.2,0.1-1.8,0.1c-5.7,0.7-11.2,1.4-16.5,2.1
			c-0.6,0.5-1.1,0.9-1.7,1.2c-0.7,0.4-1.4,0.6-2.1,0.7c-0.8,0.1-1.4,0-1.9-0.4c-0.3-0.2-0.4-0.4-0.6-0.7c-4.2,0.5-8.4,1.1-12.4,1.6
			c-0.7,0.6-1.4,1.2-2,1.9c-0.5,0.5-1,1-1.5,1.5l-5.2,13.2c29-4.1,60.6-8.6,60.6-8.6l12.7-1.8c-0.1,0.2-0.2,0.4-0.3,0.6
			c-0.1,0.4-0.2,0.7-0.4,1.1c-0.4,1.3-0.7,2.5-0.9,3.6c-0.2,1.4-0.2,2.8,0,4.2c0.2,1.5,0.7,2.6,1.7,3.4c0.1,0.1,0.2,0.1,0.3,0.2
			c0.9,0.6,1.9,0.9,3.1,0.7c3.2-0.4,5.7-3.5,7.7-9.4c0-0.1,0.2-0.6,0.5-1.5c0.3-0.8,0.6-1.9,0.9-3.1c0-0.2,0.1-0.3,0.1-0.4
			c0.1-0.4,0.2-0.9,0.4-1.3c0.3-1.1,0.7-2.4,1-3.7c0.5-1.9,1-3.9,1.5-5.9C374.7,78.3,375.5,77.3,376.3,76.5z M286.8,63.5
			c-0.3,0.9-0.8,2-1.5,3.2c-0.6,1.2-1.3,2.4-2.2,3.7s-1.6,2.4-2.5,3.5s-1.7,2-2.6,2.7s-1.6,1.1-2.3,1.2c-0.9,0.1-1.7,0-2.3-0.2
			c-0.2-0.1-0.3-0.2-0.5-0.3c-0.4-0.2-0.7-0.5-0.9-0.9c-0.3-0.5-0.6-1-0.8-1.6c-0.2-0.6-0.3-1.2-0.3-1.7c-0.2-1.7-0.1-3.5,0.3-5.2
			s1.1-3.3,2.1-4.7c1-1.4,2.1-2.6,3.4-3.5c1.3-1,2.8-1.5,4.3-1.7c0.5-0.1,1.1,0,1.7,0.1c0.7,0.1,1.3,0.3,1.9,0.6s1.2,0.7,1.6,1.2
			c0.1,0.1,0.1,0.2,0.2,0.3c0.3,0.4,0.5,0.9,0.6,1.5C287.3,61.9,287.2,62.5,286.8,63.5z M461.4,67.9c0.2-0.7,0.5-1.6,0.8-2.4
			c0.2-0.5,0.4-1.1,0.6-1.7c0.2-0.8,0.5-1.5,0.8-2.3c0.8-2.3,1.6-4.8,2.4-7.5c0.8-2.6,1.7-5.2,2.5-7.8c0.9-2.6,1.7-5,2.4-7.4
			c0.8-2.4,1.5-4.4,2.1-6.2c1.4-0.2,2.9-0.4,4.3-0.5c1.4-0.2,2.8-0.4,4.3-0.6c1.4-0.2,2.9-0.4,4.4-0.6s3.1-0.5,4.8-0.8
			c0.9-0.2,1.6-0.4,2.1-0.7c0.5-0.3,0.9-0.6,1.2-1c0.3-0.4,0.4-0.7,0.5-1.1s0.1-0.7,0.1-1.1c0-0.3-0.1-0.6-0.2-0.8
			c-0.1-0.3-0.3-0.6-0.5-0.8c-0.4-0.3-1-0.5-1.7-0.6s-1.5-0.1-2.4,0s-1.8,0.2-2.9,0.3l-10,1.3l-1.4,0.2c0.6-2.1,1.4-4.1,2.4-6.2
			c1-2,2.2-3.9,3.4-5.6c1.2-1.7,2.4-3,3.7-4.1c1.2-1.1,2.4-1.7,3.4-1.8c0.9-0.1,1.6,0.1,2.1,0.6c0.2,0.2,0.4,0.5,0.5,0.8
			c0.3,0.5,0.5,1.2,0.6,2.1c0,0.4,0.1,0.7,0.1,1.1c0,0.4,0,0.8,0.1,1.2c0.1,0.7,0.4,1.1,1,1.3h0.1c0.6,0.2,1.1,0.3,1.7,0.2
			c0.3,0,0.6-0.1,0.9-0.2c0.3-0.1,0.7-0.3,1-0.6c0.3-0.2,0.6-0.5,0.9-0.9c0.3-0.3,0.4-0.8,0.4-1.2c0.2-1.8,0.2-3.3,0-4.8
			s-0.5-2.7-1.1-3.8c-0.3-0.6-0.7-1.2-1.1-1.7c-0.3-0.3-0.5-0.6-0.8-0.9c-0.7-0.6-1.5-1.1-2.4-1.3c-0.9-0.3-1.8-0.3-2.7-0.2
			c-2,0.3-4,0.9-6,1.8c-2.1,1-4.1,2.5-6.1,4.5c-2,2.1-4,4.8-6,8.1c-1.9,3.4-3.8,7.5-5.5,12.5l-5.8,0.7c-1.6,0.2-2.7,0.7-3.4,1.6
			c-0.7,0.8-1,1.7-0.9,2.4c0.1,0.8,0.5,1.4,1.2,1.8h0.1c0.7,0.4,2,0.5,3.7,0.3l2.4-0.3c-0.2,0.4-0.5,0.8-0.9,1.3
			c-0.2,0.2-0.3,0.4-0.5,0.7c-0.5,0.8-1.2,1.6-1.8,2.5c-0.7,0.9-1.4,1.8-2.2,2.7c-0.8,0.9-1.6,1.7-2.4,2.5c-0.8,0.7-1.6,1.4-2.4,1.9
			s-1.5,0.8-2.2,0.9c-0.5,0.1-1,0-1.4-0.1c0,0-0.1,0-0.1-0.1c-0.4-0.1-0.8-0.3-1.1-0.6c0.3-1.4,0.6-2.8,0.7-4.1s0.1-2.4,0-3.4
			c-0.2-1.9-0.8-3.4-1.8-4.6l0,0c-1-1.2-2.1-2.1-3.4-2.7s-2.7-1-4.2-1.2c-1.5-0.1-2.8-0.1-4.1,0c-2.9,0.4-5.4,1.2-7.7,2.4
			c-2.2,1.2-4.2,2.7-5.8,4.5c-1.6,1.8-3,3.7-4.1,5.8s-1.9,4.2-2.5,6.2c-0.6,2.1-1,4-1.2,5.9s-0.2,3.5,0,4.8c0.2,1.9,0.8,3.5,1.8,4.8
			c0.5,0.7,1.2,1.3,1.8,1.9c0.4,0.4,0.9,0.7,1.4,1c1.2,0.7,2.4,1.1,3.7,1.4c1.3,0.2,2.3,0.3,3.3,0.1c2.4-0.3,4.7-0.9,6.7-1.8
			c2.1-0.9,4-2,5.7-3.3s3.2-2.8,4.5-4.5s2.4-3.5,3.4-5.5c0.9,0.5,1.8,0.8,2.6,1c0.8,0.2,1.7,0.2,2.5,0.1c1.2-0.2,2.4-0.7,3.6-1.5
			s2.2-1.8,3.3-3c0.1-0.1,0.1-0.2,0.2-0.2l-1,3l-4.1,12.7L434,67.1c-2,0.8-4.2,1.4-6.6,1.7c-0.9,0.1-2,0.1-3.3-0.1
			c-0.3-0.1-0.7-0.2-1-0.3l-41.5,5.1c-0.6,0.5-1.2,1-1.8,1.5c-0.2,0.1-0.3,0.3-0.4,0.4c-0.7,0.6-1.3,1.2-2,1.9
			c-0.8,0.8-1.6,1.8-2.5,2.8c-0.5,2.1-1,4-1.5,5.9c-0.2,0.9-0.5,1.7-0.7,2.5l76.6-11.1c0,0,0.8-0.1,1.7-0.3c0.2,0.2,0.4,0.4,0.7,0.6
			h0.1c0.6,0.3,1.3,0.4,2.1,0.3c0.6-0.1,1.1-0.3,1.8-0.6c0.6-0.3,1.2-0.7,1.7-1.2c0,0,0.1,0,0.1-0.1c0.6-0.5,1.1-1.2,1.5-1.9
			c0.4-0.7,0.8-1.5,1.1-2.3C460.3,71.3,460.8,69.8,461.4,67.9z M439.1,48.7c-0.4,1.7-1.1,3.3-2.1,4.7c-0.9,1.4-2.1,2.7-3.4,3.6
			c-1.3,1-2.7,1.6-4.2,1.8c-1,0.1-1.8,0-2.4-0.3c-0.2-0.1-0.3-0.2-0.5-0.3c-0.4-0.3-0.8-0.7-1.1-1.1c-0.4-0.6-0.7-1.3-0.9-2
			c-0.2-0.7-0.3-1.4-0.4-2c-0.2-1.7-0.1-3.3,0.4-5s1.1-3.2,2.1-4.6c0.9-1.4,2.1-2.6,3.4-3.5c1.3-1,2.8-1.5,4.3-1.7
			c1-0.1,1.8,0,2.5,0.3c0.6,0.3,1.1,0.7,1.5,1.3c0,0,0,0.1,0.1,0.1c0.3,0.5,0.6,1.1,0.8,1.8c0.2,0.7,0.3,1.4,0.4,2
			C439.7,45.3,439.6,47,439.1,48.7z"/>
	</g>
</g>
</svg>
