<?xml version="1.0" encoding="utf-8"?>
<!-- Generator: Adobe Illustrator 21.0.0, SVG Export Plug-In . SVG Version: 6.00 Build 0)  -->
<svg version="1.1" id="Layer_1" xmlns="http://www.w3.org/2000/svg" xmlns:xlink="http://www.w3.org/1999/xlink" x="0px" y="0px"
	 viewBox="0 0 60 60" style="enable-background:new 0 0 60 60;" xml:space="preserve">
<style type="text/css">
	.st0{fill:#FEC214;}
</style>
<title>026-Checkout Till</title>
<desc>Created with Sketch.</desc>
<g>
	<path class="st0" d="M57.8,43L53,16.8l0,0c-0.1-0.5-0.5-0.8-1-0.8h-4V9h5V0H35v9h5v7H23v-3H12v3H8c-0.5,0-0.9,0.4-1,0.8l0,0L2.2,43
		H0v17h60V43H57.8z M37,2h14v5H37V2z M42,9h4v7h-4V9z M24,31H11v-3h1v2h11v-2h1V31z M14,15h7v13h-7V15z M8.8,18H12v8h-2
		c-0.6,0-1,0.4-1,1v5c0,0.6,0.4,1,1,1h15c0.6,0,1-0.4,1-1v-5c0-0.6-0.4-1-1-1h-2v-8h28.2l4.6,25H4.2L8.8,18z M58,58H2V45h56V58z"/>
	<path class="st0" d="M29,20v9h20v-9H29z M47,27H31v-5h16V27z"/>
	<rect x="45" y="31" class="st0" width="4" height="2"/>
	<rect x="37" y="31" class="st0" width="4" height="2"/>
	<rect x="29" y="31" class="st0" width="4" height="2"/>
	<rect x="45" y="35" class="st0" width="4" height="2"/>
	<rect x="37" y="35" class="st0" width="4" height="2"/>
	<rect x="29" y="35" class="st0" width="4" height="2"/>
	<rect x="45" y="39" class="st0" width="4" height="2"/>
	<rect x="37" y="39" class="st0" width="4" height="2"/>
	<rect x="29" y="39" class="st0" width="4" height="2"/>
</g>
</svg>
